<svg fill="#7c5140" height="28px" width="28px" version="1.1" id="Layer_1" xmlns="http://www.w3.org/2000/svg" xmlns:xlink="http://www.w3.org/1999/xlink" 
	 viewBox="0 0 512.001 512.001" xml:space="preserve">
<g>
	<g>
		<g>
			<path d="M503.535,164.666L399.301,96.372V78.348c0-10.345-8.387-18.732-18.732-18.732h-29.902
				c-1.119-0.783,7.031,4.574-82.14-53.856c-7.609-4.985-17.447-4.985-25.054,0c-89.48,58.63-80.93,53.009-82.14,53.856h-29.902
				c-10.345,0-18.732,8.387-18.732,18.732v18.024L8.465,164.666C3.354,168.024,0,173.878,0,180.335v310.913
				c0,10.354,8.423,18.733,18.729,18.733c0.008,0,0.014-0.001,0.021-0.001h474.5c0.008,0,0.014,0.001,0.021,0.001
				c10.226,0,18.729-8.324,18.729-18.733V180.335C512,174.039,508.796,168.123,503.535,164.666z M399.301,141.16l59.788,39.174
				l-59.788,39.172V141.16z M150.162,97.08h211.676c0,4.456,0,140.221,0,146.97L256,313.396L150.162,244.05
				C150.162,237.299,150.162,101.534,150.162,97.08z M112.699,141.16v78.345l-59.788-39.172L112.699,141.16z M37.463,215.002
				L148.6,287.82L37.463,435.272V215.002z M56.306,472.515l123.699-164.12l65.728,43.063c6.231,4.083,14.297,4.086,20.531,0
				l65.728-43.063l123.699,164.12H56.306z M474.537,435.272L363.399,287.82l111.138-72.818V435.272z"/>
			<path d="M212.404,181.545h87.191c10.345,0,18.732-8.387,18.732-18.732s-8.387-18.732-18.732-18.732h-87.191
				c-10.345,0-18.732,8.387-18.732,18.732S202.059,181.545,212.404,181.545z"/>
			<path d="M318.327,224.446c0-10.345-8.387-18.732-18.732-18.732h-87.191c-10.345,0-18.732,8.387-18.732,18.732
				c0,10.346,8.387,18.732,18.732,18.732h87.191C309.94,243.178,318.327,234.791,318.327,224.446z"/>
		</g>
	</g>
</g>
</svg>